<?xml version="1.0" encoding="UTF-8"?>
<svg id="Layer_1" xmlns="http://www.w3.org/2000/svg" version="1.1" viewBox="0 0 1194.36 448">
  <!-- Generator: Adobe Illustrator 30.0.0, SVG Export Plug-In . SVG Version: 2.1.1 Build 123)  -->
  <defs>
    <style>
      .st0 {
        fill: #fff;
      }

      .st1 {
        isolation: isolate;
      }

      .st2 {
        fill: lime;
      }
    </style>
  </defs>
  <g class="st1">
    <g class="st1">
      <path class="st0" d="M77.18,210H0V3.83h72.46c43.31,0,61.36,21.99,61.36,48.11,0,17.59-7.77,31.89-24.15,39.86,30.54,7.97,43.31,29.14,43.31,54.15,0,34.09-22.49,64.05-75.79,64.05ZM20.82,23.08v64.05h51.64c28.87,0,40.26-16.49,40.26-32.99s-8.33-31.06-40.26-31.06H20.82ZM20.82,104.99v85.76h57.75c37.2,0,52.75-21.17,52.75-43.98s-11.38-41.78-52.75-41.78H20.82Z"/>
      <path class="st0" d="M279.58,146.23h-81.07l-16.1,63.77h-22.21L212.94,3.83h52.47l52.47,206.17h-22.21l-16.1-63.77ZM203.5,126.98h71.35l-26.1-103.91h-19.16l-26.1,103.91Z"/>
      <path class="st0" d="M430.61,210h-86.07V3.83h20.82v186.92h65.24v19.24Z"/>
      <path class="st0" d="M562.76,146.23h-81.07l-16.1,63.77h-22.21L496.12,3.83h52.47l52.47,206.17h-22.21l-16.1-63.77ZM486.69,126.98h71.35l-26.1-103.91h-19.16l-26.1,103.91Z"/>
      <path class="st0" d="M627.72,210V3.83h46.36l88.29,186.92h12.49V3.83h20.82v206.17h-46.36l-88.29-186.92h-12.49v186.92h-20.82Z"/>
      <path class="st0" d="M933.39,214.12c-61.91,0-107.72-46.73-107.72-106.93S871.48-.01,933.39-.01c48.86,0,88.29,29.96,102.17,75.32h-22.21c-12.77-32.99-41.09-55.53-79.96-55.53-50.25,0-86.07,37.11-86.07,87.41s35.82,87.14,86.07,87.14c39.42,0,68.58-23.37,80.51-57.73h21.66c-14.16,46.46-52.47,77.52-102.17,77.52Z"/>
      <path class="st0" d="M1194.36,210h-129.65V3.83h125.21v19.24h-104.39v65.97h99.95v19.24h-99.95v82.47h108.83v19.24Z"/>
    </g>
    <g class="st1">
      <path class="st0" d="M131.32,346.29H20.82v101.71H0v-206.17h20.82v85.22h110.5v-85.22h20.82v206.17h-20.82v-101.71Z"/>
      <path class="st0" d="M318.16,448h-129.65v-206.17h125.21v19.24h-104.39v65.97h99.95v19.24h-99.95v82.47h108.83v19.24Z"/>
      <path class="st0" d="M450.59,384.23h-81.07l-16.1,63.77h-22.21l52.75-206.17h52.47l52.47,206.17h-22.21l-16.1-63.77ZM374.52,364.98h71.35l-26.1-103.91h-19.16l-26.1,103.91Z"/>
      <path class="st0" d="M533.88,365.53v82.47h-20.82v-206.17h73.29c45.53,0,71.91,26.12,71.91,61.58,0,26.66-14.44,48.11-40.53,57.18l39.7,87.41h-22.77l-37.76-83.02c-3.33.27-6.66.55-10.27.55h-52.75ZM533.88,261.08v85.22h52.75c36.09,0,49.97-20.07,49.97-42.88s-13.6-42.33-48.86-42.33h-53.86Z"/>
      <path class="st0" d="M716.56,448v-186.92h-53.58v-19.24h128.27v19.24h-53.86v186.92h-20.82Z"/>
    </g>
  </g>
  <g>
    <path class="st2" d="M1005.74,334.01l-97.87.03v-21.78l92.79-.03v-70.38h21.88v75.36l-16.8,16.8Z"/>
    <path class="st2" d="M926.85,448h-18.99v-93.06h133.63c14.25,14.25,22.22,22.22,36.47,36.47v56.6h-18.99v-42.08l-29.17-29.17h-102.91v71.25h-.04Z"/>
    <rect class="st2" x="907.86" y="241.84" width="49" height="49"/>
  </g>
</svg>